Coordinates
version=1
nRows=15
nColumns=23
inDegrees=yes

Units are S.I. units (second, meters, Newtons, ...)
If the header above contains a line with 'inDegrees', this indicates whether rotational values are in degrees (yes) or radians (no).

endheader
time	pelvis_tilt	pelvis_list	pelvis_rotation	pelvis_tx	pelvis_ty	pelvis_tz	hip_flexion_r	hip_adduction_r	hip_rotation_r	knee_angle_r	knee_angle_r_beta	ankle_angle_r	subtalar_angle_r	mtp_angle_r	hip_flexion_l	hip_adduction_l	hip_rotation_l	knee_angle_l	knee_angle_l_beta	ankle_angle_l	subtalar_angle_l	mtp_angle_l
     22.50000000	     -8.65818667	      5.23057293	      8.61591193	      2.35022664	      0.91489255	      0.98174235	      7.94120519	     -5.11880280	     -5.33752393	     94.89734894	      1.65627119	     -5.77275235	    -10.22477219	      0.00000000	     31.72487866	     11.07563366	     -1.95644643	     41.47733459	      0.72391605	     13.96006199	     -7.81924797	      0.00000000
     22.50666667	     -8.58935999	      5.20803765	      8.19082494	      2.34776248	      0.91106871	      0.98252291	     10.62176984	     -5.35105843	     -4.37614033	     98.09440931	      1.71207042	     -4.64661882	    -10.12405485	      0.00000000	     31.13123552	     10.83526384	     -1.90133160	     43.44972552	      0.75834077	     16.91056867	     -7.37125451	      0.00000000
     22.51333333	     -8.59701137	      5.18784630	      7.71394264	      2.34532046	      0.90778656	      0.98338121	     13.47016589	     -5.53703116	     -3.35704997	    100.94629489	      1.76184521	     -3.62666598	     -9.94690358	      0.00000000	     30.39257975	     10.52741742	     -1.96424631	     44.99376073	      0.78528927	     19.60001452	     -6.91122383	      0.00000000
     22.52000000	     -8.62012994	      5.17011074	      7.21060485	      2.34292975	      0.90517076	      0.98433999	     16.39537559	     -5.65181918	     -2.31509438	    103.40540309	      1.80476475	     -2.67500031	     -9.73191603	      0.00000000	     29.42809210	     10.16516556	     -2.10795301	     46.08106908	      0.80426638	     21.93587617	     -6.38628514	      0.00000000
     22.52666667	     -8.44137269	      5.24977128	      6.69193067	      2.34084479	      0.90353661	      0.98527120	     19.04731133	     -5.80768523	     -1.30769965	    105.38356599	      1.83929020	     -1.87241131	     -9.69008994	      0.00000000	     27.93502918	      9.87716936	     -2.23799254	     46.59237083	      0.81319028	     23.65925659	     -6.50253714	      0.00000000
     22.53333333	     -8.65622805	      5.11711202	      6.24131231	      2.33881175	      0.90200857	      0.98621952	     22.18473191	     -5.68092356	     -0.40359459	    106.99416747	      1.86740050	     -1.12379320	     -9.27780309	      0.00000000	     26.80789340	      9.21431843	     -2.83003084	     47.03350593	      0.82088954	     25.87562501	     -4.52251255	      0.00000000
     22.54000000	     -8.61766555	      5.11255542	      5.82327200	      2.33719862	      0.90158672	      0.98697723	     24.91321891	     -5.66088341	      0.41147338	    108.09002319	      1.88652679	     -0.48638221	     -9.07405297	      0.00000000	     25.03570493	      8.85707792	     -2.98957513	     46.74395615	      0.81583594	     26.87214795	     -4.43484005	      0.00000000
     22.54666667	     -8.77099057	      5.05238647	      5.47532783	      2.33575571	      0.90151926	      0.98755229	     27.79103534	     -5.58592172	      1.10136003	    108.78678301	      1.89868755	      0.12502856	     -8.53301040	      0.00000000	     23.32600941	      8.45739830	     -3.23552046	     46.17718952	      0.80594400	     27.62781583	     -3.73505338	      0.00000000
     22.55333333	     -8.81265720	      4.89603116	      5.21988973	      2.33474304	      0.90229030	      0.98793635	     30.37355160	     -5.40877189	      1.55299572	    108.96834277	      1.90185636	      0.56307286	     -8.30197800	      0.00000000	     21.30761107	      8.00037415	     -3.36717364	     45.25259935	      0.78980685	     28.06373458	     -3.32377487	      0.00000000
     22.56000000	     -8.90026815	      4.70530800	      4.99483313	      2.33403990	      0.90357229	      0.98810330	     32.86307715	     -5.22717471	      1.85442185	    108.73020269	      1.89770003	      0.92787199	     -7.96675275	      0.00000000	     19.20487328	      7.55995138	     -3.48087925	     44.05543190	      0.76891234	     28.27038398	     -2.73085004	      0.00000000
     22.56666667	     -8.95465168	      4.46461353	      4.83185513	      2.33375813	      0.90547981	      0.98809290	     35.12101799	     -5.00546903	      1.98849744	    108.06409418	      1.88607425	      1.21732017	     -7.66570844	      0.00000000	     16.93001847	      7.08354457	     -3.60794330	     42.58814558	      0.74330336	     28.34699868	     -1.92428256	      0.00000000
     22.57333333	     -8.95787015	      4.11396078	      4.71166865	      2.33389359	      0.90799918	      0.98788087	     37.10875059	     -4.71328204	      1.89801963	    106.96568911	      1.86690346	      1.37617290	     -7.55411617	      0.00000000	     14.50815285	      6.51837659	     -3.70702164	     40.91592778	      0.71411766	     28.25791517	     -0.98104148	      0.00000000
     22.58000000	     -8.92952060	      3.63537785	      4.62929908	      2.33430234	      0.91104203	      0.98757344	     38.85031270	     -4.30960185	      1.59691272	    105.46539791	      1.84071844	      1.44499261	     -7.65842784	      0.00000000	     12.02299442	      5.81904249	     -3.83158068	     39.12331797	      0.68283071	     28.10762316	      0.10720727	      0.00000000
     22.58666667	     -9.35695726	      3.10671566	      4.55532686	      2.33479532	      0.91386919	      0.98717491	     40.97295760	     -3.91036064	      1.19547500	    103.70484259	      1.80999095	      1.42857955	     -7.71905629	      0.00000000	     10.05089724	      5.21492871	     -3.72826834	     37.27508269	      0.65057292	     27.74039209	      0.80767908	      0.00000000
     22.59333333	     -9.06273893	      2.58613328	      4.37230815	      2.33611944	      0.91814995	      0.98677889	     41.93918108	     -3.44031776	      0.71651648	    101.42882357	      1.77026693	      1.10624991	     -8.47053430	      0.00000000	      7.08689927	      4.45435335	     -4.10071956	     34.96007526	      0.61016842	     26.67928953	      1.98770946	      0.00000000
